<?xml version="1.0" standalone="no"?>
<!DOCTYPE svg PUBLIC "-//W3C//DTD SVG 20010904//EN"
 "http://www.w3.org/TR/2001/REC-SVG-20010904/DTD/svg10.dtd">
<svg version="1.0" xmlns="http://www.w3.org/2000/svg"
 width="227.000000pt" height="227.000000pt" viewBox="0 0 227.000000 227.000000"
 preserveAspectRatio="xMidYMid meet">
<metadata>
Created by potrace 1.11, written by Peter Selinger 2001-2013
</metadata>
<g transform="translate(0.000000,227.000000) scale(0.100000,-0.100000)"
fill="#000000" stroke="none">
<path d="M795 2101 c-3 -3 -16 -6 -28 -7 -28 -3 -65 -11 -75 -18 -5 -3 -21 -7
-36 -10 -16 -3 -46 -14 -67 -25 -21 -12 -39 -19 -39 -16 0 6 -143 -78 -165
-97 -48 -39 -156 -148 -182 -183 -37 -50 -104 -162 -107 -178 -1 -7 -5 -18 -9
-25 -7 -11 -58 -153 -57 -159 0 -2 0 -4 -1 -5 -26 -87 -28 -320 -3 -418 57
-227 173 -408 344 -540 100 -77 272 -157 350 -163 16 -1 30 -5 30 -8 0 -3 6
-6 13 -6 27 0 120 -14 128 -18 4 -3 10 -1 14 4 4 7 15 7 31 1 14 -6 30 -7 35
-4 10 6 120 17 154 15 28 -2 48 -6 60 -12 30 -16 279 -19 355 -5 25 4 53 9 63
9 9 1 17 4 17 7 0 4 6 7 13 8 27 2 71 14 91 25 12 6 23 12 26 12 17 3 110 51
110 57 0 5 5 8 10 8 16 0 93 59 164 125 58 55 139 170 171 243 10 23 23 42 28
42 5 0 7 7 4 15 -4 8 -2 17 2 20 5 2 11 14 14 25 5 20 1 20 -448 20 l-452 0
-26 -38 c-32 -48 -97 -112 -113 -112 -3 0 -18 -9 -33 -20 -28 -19 -28 -19 -68
3 -23 12 -58 38 -80 57 -45 41 -109 120 -96 120 4 0 3 4 -4 8 -17 11 -52 97
-45 108 4 6 197 10 474 9 256 0 469 2 472 5 25 26 27 302 3 405 -3 11 -7 27
-9 35 -3 13 26 15 213 15 l215 0 -4 25 c-3 14 -12 35 -20 48 -8 12 -11 22 -8
22 10 0 -51 107 -99 175 -60 84 -213 225 -244 225 -6 0 -11 4 -11 9 0 5 -10
13 -22 17 -13 3 -30 12 -38 19 -8 8 -18 14 -23 14 -4 1 -23 8 -43 16 -20 8
-42 15 -48 15 -7 0 -17 5 -24 12 -7 7 -12 9 -12 5 0 -4 -8 -3 -18 2 -18 10
-40 15 -111 27 -18 3 -43 8 -55 10 -21 5 -168 4 -239 0 -21 -2 -61 4 -90 12
-51 14 -341 25 -352 13z m434 -468 c85 -63 169 -192 185 -283 l6 -35 -265 0
c-145 1 -267 4 -271 8 -19 19 68 175 130 231 47 42 113 86 120 79 3 -4 6 -1 6
5 0 9 17 17 44 21 5 0 25 -11 45 -26z"/>
</g>
</svg>
